<svg width="30" height="31" viewBox="0 0 30 31" fill="none" xmlns="http://www.w3.org/2000/svg">
    <g clip-path="url(#clip0)">
        <path d="M26.465 30.1628L17.2313 21.1438C15.4963 22.2109 13.4513 22.8372 11.25 22.8372C5.03625 22.8372 0 17.9181 0 11.8488C0 5.7796 5.03625 0.860474 11.25 0.860474C17.4638 0.860474 22.5 5.7796 22.5 11.8488C22.5 13.9989 21.8575 15.9976 20.7663 17.691L30 26.71L26.465 30.1628ZM11.25 20.3954C16.0737 20.3954 20 16.5616 20 11.8488C20 7.13605 16.0737 3.30233 11.25 3.30233C6.42625 3.30233 2.5 7.13605 2.5 11.8488C2.5 16.5616 6.42625 20.3954 11.25 20.3954Z" fill="black"/>
    </g>
    <defs>
        <clipPath id="clip0">
            <rect y="0.860474" width="30" height="29.3023" rx="4" fill="white"/>
        </clipPath>
    </defs>
</svg>
